<svg width="85" height="51" viewBox="0 0 85 51" fill="none" xmlns="http://www.w3.org/2000/svg">
<path d="M83.6414 4.59329L80.8571 1.78965C79.9808 0.914071 78.815 0.43171 77.569 0.43171C76.3237 0.43171 75.1565 0.914071 74.2802 1.78965L42.519 33.5523L10.7211 1.7544C9.84626 0.878827 8.67905 0.397156 7.43376 0.397156C6.18846 0.397156 5.02057 0.878827 4.14499 1.7544L1.36001 4.54077C-0.453337 6.35273 -0.453337 9.30426 1.36001 11.1162L39.2192 49.1115C40.0941 49.9864 41.2599 50.6028 42.5162 50.6028H42.5308C43.7767 50.6028 44.9426 49.9857 45.8174 49.1115L83.6414 11.2192C84.5176 10.3443 84.9986 9.14324 85 7.89795C85 6.65196 84.5176 5.46748 83.6414 4.59329Z" fill="#6158B5"/>
</svg>
