<svg width="85" height="51" viewBox="0 0 85 51" fill="none" xmlns="http://www.w3.org/2000/svg">
<path d="M1.35863 46.4067L4.14292 49.2103C5.01919 50.0859 6.18501 50.5683 7.431 50.5683C8.67629 50.5683 9.8435 50.0859 10.7198 49.2103L42.481 17.4477L74.2789 49.2456C75.1537 50.1212 76.3209 50.6028 77.5662 50.6028C78.8115 50.6028 79.9794 50.1212 80.855 49.2456L83.64 46.4592C85.4533 44.6473 85.4533 41.6957 83.64 39.8838L45.7808 1.88847C44.9059 1.01358 43.7401 0.397153 42.4838 0.397152L42.4693 0.397152C41.2233 0.397152 40.0574 1.01427 39.1826 1.88847L1.35863 39.7808C0.482367 40.6557 0.00138484 41.8568 2.60697e-06 43.102C2.49804e-06 44.348 0.482366 45.5325 1.35863 46.4067Z" fill="#6158B5"/>
</svg>
